<svg xmlns="http://www.w3.org/2000/svg" fill="currentColor" viewBox="0 0 24 24"><path d="m5.9 18.7-.9-.9-.4-.5q-.7-.9-1.1-1a1 1 0 1 1 .7-1.9q1 .4 2 1.6l.8 1q.3.2 1.1.1l.2-1q-4.5-1-4.6-6.5 0-1.8 1-3.3-.3-1.3.4-3.1 0-.4.6-.6h.2q1.3-.3 3.4 1a12 12 0 0 1 5.4 0q2.2-1.4 3.4-1h.2q.5 0 .6.6.8 1.9.3 3.1 1 1.4 1.1 3.3-.1 5.5-4.6 6.4l.1 1.4v2.7a1 1 0 0 1 0 2q-1.8.1-2-1.5v-3.2q0-1-.4-1.3a1 1 0 0 1 .6-1.8c3-.3 4.3-1.5 4.3-4.7q0-1.4-1-2.4a1 1 0 0 1-.1-1q.3-.7 0-1.6-.6.1-1.8 1h-.8a10 10 0 0 0-5.2 0h-.8q-1.2-.9-1.9-1-.1 1 .1 1.6.1.6-.2 1-.9 1-.9 2.4c0 3.2 1.4 4.4 4.3 4.7a1 1 0 0 1 .6 1.7q-.4.4-.5 1.4v3.2q-.1 1.7-2 1.5a1 1 0 0 1 0-2v-1q-1.3.2-2.2-.4"/></svg>
