<svg xmlns="http://www.w3.org/2000/svg" fill="currentColor" viewBox="0 0 448 512"><path d="M97.9 434.7c-46.4-95-74-152.3-74-153.7 0-2.3 2.9-2 30.7 3.5 49 9.6 75.2 12.3 118.8 12.3q86.5 0 141.2-27.5c19.3-9.7 30.9-18.3 40.4-30a57 57 0 0 0 15.6-40.9c.1-15.9-2-24.2-11.2-43.6a89 89 0 0 1-7.1-19.6c-.5-5 0-5.6 3.6-6 8-1 47.5 37.3 62 60.2 25.1 39.4 27.2 82 6 123.2a185 185 0 0 1-51.6 62.7c-40.1 33-86.8 56-151.1 74.6-34.6 10-90.5 22.1-102 22.1-2.4 0-7-8-21.3-37.3m12.9-153c-45-6-82.8-11-84-11.4-2-.6-9.1-24.5-13.2-44a301 301 0 0 1-3.3-28.9c-3.6-49.1 7-83.1 35.7-113.7 48.6-51.7 152.5-58 269.8-16.3q30.7 10.9 25 15.6c-2.8 2.3-21.8 2.3-54.6-.2C235 79.1 196.1 86.2 176 103c-30.6 25.6-26 81.7 13.5 162.7l9.6 19.1c2.3 4 .6 7.7-3.4 7.6-1.7-.1-40-5-85-10.8m151-44.1c-36-6.5-68.2-28.8-78.7-54.3-5-12.2-4.7-28.2.6-37.7a61 61 0 0 1 28.5-22.9c18.6-7 51.2-4.2 75 6.4 22.4 10 42.4 27.8 49.8 44.2a42.7 42.7 0 0 1-18.8 56 103 103 0 0 1-56.4 8.3"/></svg>
