<svg xmlns="http://www.w3.org/2000/svg" fill="currentColor" viewBox="0 0 24 24"><path d="M21.3 14c-.3 1.4-2.5 3-5 3.2q-2 .3-4 .3c-2.2-.1-4-.6-4-.6v.7c.4 2.2 2.3 2.3 4 2.4 1.9 0 3.5-.5 3.5-.5v1.7s-1.2.7-3.5.8q-1.9.1-4.6-.5c-3.9-1-4.6-5.2-4.7-9.5V8.6C3 4.2 5.8 3 5.8 3c1.5-.7 4-1 6.5-1q4 0 6.5 1s2.9 1.2 2.9 5.6c0 0 0 3.2-.4 5.4m-3-5.1q0-1.6-.8-2.6t-2.2-1q-1.7 0-2.5 1.3l-.5.9-.5-.9a3 3 0 0 0-2.4-1.2q-1.5 0-2.2 1t-.8 2.5v5.3h2V9q0-1.7 1.4-1.7 1.5 0 1.5 2v2.8h2V9.4q0-2 1.6-2 1.3 0 1.3 1.7v5h2.1z"/></svg>
